# xmcd
#
# Track frame offsets:
#	150
#	1446
#	17106
#	31201
#	48199
#	63216
#	79057
#	94951
#	110318
#	127118
#	141648
#	158033
#	168956
#
# Disc length: 2470 seconds
#
# Revision: 1
# Processed by: cddbd v1.5.2PL0 Copyright (c) Steve Scherf et al.
# Submitted via: audiograbber 1.83.01
#
DISCID=a409a40d
DTITLE=Vladimir Harkommen - Silence, as long as a thought, while the executione
DTITLE=rs are reloading
DYEAR=2009
DGENRE=Hardcore
TTITLE0=I am VRHN
TTITLE1=Roadkill BBQ
TTITLE2=Eyebrow in surprise
TTITLE3=Dial Teddybear 6-6-6
TTITLE4=Party of the damned
TTITLE5=Divorce divine
TTITLE6=Not even close
TTITLE7=Mozambigue shot
TTITLE8=Water means bleeing
TTITLE9=Fugitive
TTITLE10=Body in the trunk
TTITLE11=Rink o' fear
TTITLE12=Electric sheep
EXTD=
EXTT0=
EXTT1=
EXTT2=
EXTT3=
EXTT4=
EXTT5=
EXTT6=
EXTT7=
EXTT8=
EXTT9=
EXTT10=
EXTT11=
EXTT12=
PLAYORDER=
